<svg width="24" height="24" viewBox="0 0 24 24" fill="none" xmlns="http://www.w3.org/2000/svg">
<path fill-rule="evenodd" clip-rule="evenodd" d="M17.2706 2.70022C17.6996 2.69872 18.1247 2.78211 18.5215 2.9456C18.9189 3.10938 19.28 3.35031 19.5839 3.65448C19.8879 3.95866 20.1286 4.32005 20.2923 4.71782C20.4556 5.11489 20.5389 5.54036 20.5374 5.96976C20.5374 5.97051 20.5374 5.97126 20.5374 5.972L19.5329 5.96779H20.5374V5.96976V16.5246C20.5374 17.0798 20.0877 17.53 19.5328 17.53C18.978 17.53 18.5282 17.0798 18.5282 16.5246V5.96357C18.5289 5.79889 18.497 5.6357 18.4344 5.48343C18.3717 5.33115 18.2796 5.19279 18.1632 5.07634C18.0469 4.9599 17.9086 4.86766 17.7565 4.80496C17.6043 4.74226 17.4413 4.71033 17.2767 4.71102L17.2725 4.71103H4.46383C3.909 4.71103 3.45923 4.26089 3.45923 3.70562C3.45923 3.15035 3.909 2.70022 4.46383 2.70022H17.2706ZM17.2706 2.70022C17.2698 2.70022 17.269 2.70022 17.2683 2.70022L17.2725 3.70562V2.70022H17.2706Z" fill="#00CDFA"/>
<path fill-rule="evenodd" clip-rule="evenodd" d="M9.48755 9.73881C9.48755 9.18353 9.93732 8.7334 10.4922 8.7334H16.5198C17.0746 8.7334 17.5244 9.18353 17.5244 9.73881C17.5244 10.2941 17.0746 10.7442 16.5198 10.7442H10.4922C9.93732 10.7442 9.48755 10.2941 9.48755 9.73881Z" fill="#00CDFA"/>
<path fill-rule="evenodd" clip-rule="evenodd" d="M9.48755 12.7539C9.48755 12.1987 9.93732 11.7485 10.4922 11.7485H16.5198C17.0746 11.7485 17.5244 12.1987 17.5244 12.7539C17.5244 13.3092 17.0746 13.7593 16.5198 13.7593H10.4922C9.93732 13.7593 9.48755 13.3092 9.48755 12.7539Z" fill="#00CDFA"/>
<path fill-rule="evenodd" clip-rule="evenodd" d="M4.61397 4.72087C4.41192 4.6967 4.20703 4.72203 4.01693 4.79467C3.82683 4.86732 3.65722 4.98512 3.5227 5.13792C3.38818 5.29072 3.29277 5.47395 3.2447 5.67183C3.19663 5.86972 3.19732 6.07633 3.24673 6.27389C3.29614 6.47144 3.39277 6.65402 3.52832 6.80591C3.89791 7.22005 3.86206 7.85563 3.44826 8.22551C3.03445 8.5954 2.39938 8.55952 2.02979 8.14538C1.67737 7.75047 1.42611 7.27576 1.29765 6.76212C1.16919 6.24847 1.16738 5.71128 1.29238 5.19678C1.41737 4.68228 1.66542 4.20588 2.01518 3.8086C2.36493 3.41132 2.80592 3.10505 3.30017 2.91616C3.79443 2.72727 4.32715 2.66142 4.85247 2.72428C5.3778 2.78713 5.87999 2.9768 6.31582 3.27698C6.75166 3.57715 7.10808 3.97882 7.3544 4.44742C7.60073 4.91602 7.72957 5.43751 7.72986 5.967V18.0319C7.72997 18.2355 7.77952 18.4361 7.87426 18.6163C7.969 18.7966 8.10609 18.9511 8.27372 19.0665C8.44135 19.182 8.6345 19.2549 8.83654 19.2791C9.03859 19.3033 9.24348 19.2779 9.43358 19.2053C9.62368 19.1326 9.79329 19.0148 9.92781 18.862C10.0623 18.7092 10.1577 18.526 10.2058 18.3281C10.2539 18.1302 10.2532 17.9236 10.2038 17.7261C10.1544 17.5285 10.0577 17.3459 9.92219 17.194C9.65838 16.8984 9.59272 16.4753 9.75453 16.1135C9.91634 15.7518 10.2754 15.5189 10.6715 15.5189H21.2198C21.5056 15.5189 21.778 15.6408 21.9685 15.854C22.3888 16.3243 22.6641 16.9063 22.7611 17.5297C22.8581 18.1531 22.7727 18.7912 22.5152 19.3671C22.2577 19.943 21.8391 20.4319 21.31 20.7749C20.781 21.1178 20.1642 21.3002 19.5339 21.3C19.5338 21.3 19.5341 21.3 19.5339 21.3H8.98561C8.9655 21.3 8.94552 21.2994 8.9257 21.2982C8.81644 21.2962 8.70708 21.2887 8.59804 21.2757C8.07271 21.2128 7.57052 21.0231 7.13469 20.723C6.69885 20.4228 6.34243 20.0211 6.09611 19.5525C5.84979 19.0839 5.72094 18.5624 5.72065 18.033V5.96807C5.72046 5.76461 5.67091 5.56369 5.57625 5.38362C5.48151 5.20339 5.34443 5.0489 5.1768 4.93345C5.00917 4.818 4.81602 4.74505 4.61397 4.72087ZM11.9989 19.2892H19.5339C19.7764 19.2893 20.0142 19.2192 20.2177 19.0872C20.4212 18.9553 20.5822 18.7673 20.6812 18.5458C20.7803 18.3243 20.8131 18.0788 20.7758 17.839C20.7591 17.732 20.7288 17.628 20.6859 17.5297H12.2119C12.2775 17.9527 12.2596 18.3854 12.1581 18.8032C12.1177 18.9696 12.0644 19.1321 11.9989 19.2892Z" fill="#00CDFA"/>
</svg>
