<svg width="24" height="25" viewBox="0 0 24 25" fill="none" xmlns="http://www.w3.org/2000/svg">
<path d="M10.384 0.594156C10.9363 0.594156 11.384 1.04187 11.384 1.59416V3.75431L16.0724 3.75431C17.6718 3.75431 18.9684 5.05092 18.9684 6.65036V8.55752C18.9684 9.1098 18.5207 9.55752 17.9684 9.55752C17.4161 9.55752 16.9684 9.1098 16.9684 8.55752V6.65036C16.9684 6.15549 16.5672 5.75431 16.0724 5.75431L4.69609 5.75431C4.20122 5.75431 3.80005 6.15549 3.80005 6.65036L3.80005 15.4986C3.80005 15.9934 4.20122 16.3946 4.69609 16.3946H8.08635C8.63863 16.3946 9.08635 16.8423 9.08635 17.3946C9.08635 17.9469 8.63863 18.3946 8.08635 18.3946H4.69609C3.09665 18.3946 1.80005 17.098 1.80005 15.4986L1.80005 6.65036C1.80005 5.05092 3.09665 3.75431 4.69609 3.75431L9.38403 3.75431V1.59416C9.38403 1.04187 9.83175 0.594156 10.384 0.594156Z" fill="#FFCF23"/>
<path d="M8.34497 9.3422C8.34497 8.78992 7.89725 8.3422 7.34497 8.3422C6.79269 8.3422 6.34497 8.78992 6.34497 9.3422V10.6123C6.34497 11.1646 6.79269 11.6123 7.34497 11.6123C7.89725 11.6123 8.34497 11.1646 8.34497 10.6123V9.3422Z" fill="#FFCF23"/>
<path d="M13.4231 8.3422C13.9754 8.3422 14.4231 8.78992 14.4231 9.3422V10.6123C14.4231 11.1646 13.9754 11.6123 13.4231 11.6123C12.8708 11.6123 12.4231 11.1646 12.4231 10.6123V9.3422C12.4231 8.78992 12.8708 8.3422 13.4231 8.3422Z" fill="#FFCF23"/>
<path d="M12.2476 14.0653C12.7495 13.8348 12.9694 13.241 12.7389 12.7392C12.5097 12.2404 11.9212 12.0204 11.4213 12.244C11.4099 12.2658 11.2497 12.3032 11.22 12.3102C11.2174 12.3108 11.2154 12.3113 11.2154 12.3113C11.0556 12.3541 10.826 12.3976 10.5578 12.3976C10.264 12.3976 10.0292 12.3528 9.87571 12.3115C9.79924 12.2909 9.74416 12.2715 9.71354 12.2599C9.70002 12.2547 9.69142 12.2511 9.68801 12.2497C9.19294 12.0196 8.60336 12.2295 8.36582 12.7229C8.12626 13.2205 8.33546 13.8181 8.83308 14.0577L8.83419 14.0582C8.85355 14.0675 8.87314 14.0763 8.89284 14.0848C8.92097 14.097 8.95726 14.112 9.00128 14.1287C9.08922 14.1623 9.20868 14.2031 9.35614 14.2428C9.65054 14.322 10.0613 14.3976 10.5578 14.3976C11.0374 14.3976 11.444 14.3207 11.7335 14.243C11.8791 14.204 11.9978 14.164 12.0845 14.1318C12.128 14.1157 12.1637 14.1014 12.191 14.09L12.1961 14.0878L12.2257 14.0752L12.2383 14.0696L12.2434 14.0673L12.2456 14.0663L12.2476 14.0653Z" fill="#FFCF23"/>
<path fill-rule="evenodd" clip-rule="evenodd" d="M18.6158 12.5639C18.7061 12.149 18.5132 11.724 18.1413 11.519C17.7695 11.3139 17.3071 11.3775 17.0044 11.6753L11.1244 17.4611C10.8875 17.6942 10.788 18.0333 10.8615 18.3575C10.9349 18.6817 11.1709 18.9448 11.4852 19.053L14.0381 19.9322L13.3797 22.9553C13.2894 23.3703 13.4823 23.7952 13.8542 24.0003C14.226 24.2053 14.6884 24.1417 14.9911 23.8439L20.871 18.0582C21.108 17.8251 21.2075 17.4859 21.134 17.1618C21.0605 16.8376 20.8246 16.5745 20.5103 16.4662L17.9574 15.587L18.6158 12.5639ZM15.4703 18.3948L13.576 17.7424L16.054 15.3041L15.8997 16.0125C15.7962 16.4881 16.0649 16.966 16.5252 17.1244L18.4195 17.7768L15.9415 20.2151L16.0958 19.5068C16.1993 19.0312 15.9306 18.5533 15.4703 18.3948Z" fill="#FFCF23"/>
</svg>
