<svg width="24" height="24" viewBox="0 0 24 24" fill="none" xmlns="http://www.w3.org/2000/svg">
<path d="M14.5389 8.18785C15.3491 6.77295 14.8683 4.96372 13.465 4.14682C12.0617 3.32993 10.2672 3.81471 9.45704 5.22961L3.39821 15.8104C2.588 17.2253 3.06882 19.0346 4.47214 19.8515C5.87546 20.6684 7.66988 20.1836 8.48009 18.7687L14.5389 8.18785Z" fill="#F8BB2D"/>
<path d="M8.86969 17.2911C8.86969 18.9254 7.55572 20.2502 5.93485 20.2502C4.31398 20.2502 3 18.9254 3 17.2911C3 15.6569 4.31398 14.332 5.93485 14.332C7.55572 14.332 8.86969 15.6569 8.86969 17.2911Z" fill="#3BA757"/>
<path d="M9.46584 8.18785C8.65563 6.77295 9.13645 4.96372 10.5398 4.14682C11.9431 3.32993 13.7375 3.81471 14.5477 5.22961L20.6065 15.8104C21.4167 17.2253 20.9359 19.0346 19.5326 19.8515C18.1293 20.6684 16.3349 20.1836 15.5247 18.7687L9.46584 8.18785Z" fill="#4689F2"/>
</svg>
