<svg width="24" height="24" viewBox="0 0 24 24" fill="none" xmlns="http://www.w3.org/2000/svg">
<path fill-rule="evenodd" clip-rule="evenodd" d="M20.9983 7.27211V7.31136V13.2207C20.9983 13.7455 20.5728 14.171 20.048 14.171C19.5232 14.171 19.0977 13.7455 19.0977 13.2207V7.41325H3.89346L3.89346 13.3931C3.89346 14.207 3.8942 14.7604 3.92914 15.1881C3.96318 15.6047 4.02488 15.8178 4.1006 15.9664C4.28281 16.324 4.57356 16.6147 4.93117 16.7969C5.07979 16.8727 5.29284 16.9344 5.70946 16.9684C6.13716 17.0033 6.6905 17.0041 7.50448 17.0041H11.8082C12.3331 17.0041 12.7585 17.4295 12.7585 17.9544C12.7585 18.4792 12.3331 18.9046 11.8082 18.9046L7.50448 18.9046H7.46521C6.70028 18.9046 6.06897 18.9046 5.55469 18.8626C5.02055 18.819 4.52954 18.7253 4.06834 18.4903C3.35312 18.1259 2.77163 17.5444 2.40721 16.8292C2.17222 16.368 2.07856 15.877 2.03492 15.3429C1.9929 14.8286 1.99291 14.1973 1.99292 13.4323V13.3931V7.31136V7.27209C1.99292 7.00591 1.99291 6.75581 1.99468 6.52129C1.99351 6.50201 1.99292 6.48256 1.99292 6.46299C1.99292 6.4374 1.99393 6.41204 1.99592 6.38697C2.00015 6.00295 2.01035 5.66226 2.03492 5.36157C2.07856 4.82743 2.17222 4.33643 2.40721 3.87523C2.77163 3.16001 3.35312 2.57852 4.06834 2.2141C4.52954 1.97911 5.02055 1.88544 5.55469 1.8418C6.06897 1.79978 6.70028 1.79979 7.4652 1.79981H7.50448H15.4867H15.526C16.2909 1.79979 16.9222 1.79978 17.4365 1.8418C17.9707 1.88544 18.4617 1.97911 18.9229 2.2141C19.6381 2.57852 20.2196 3.16001 20.584 3.87523C20.819 4.33643 20.9126 4.82743 20.9563 5.36158C20.9809 5.66226 20.9911 6.00295 20.9953 6.38696C20.9973 6.41204 20.9983 6.4374 20.9983 6.46299C20.9983 6.48257 20.9977 6.50201 20.9965 6.52129C20.9983 6.75576 20.9983 7.006 20.9983 7.27211ZM19.0618 5.51272H3.92944C3.96354 5.09849 4.0251 4.88624 4.1006 4.73805C4.28281 4.38044 4.57356 4.0897 4.93117 3.90749C5.07979 3.83176 5.29284 3.77006 5.70946 3.73603C6.13716 3.70108 6.6905 3.70034 7.50448 3.70034L15.4867 3.70034C16.3007 3.70034 16.854 3.70108 17.2817 3.73603C17.6984 3.77006 17.9114 3.83176 18.06 3.90749C18.4176 4.0897 18.7084 4.38044 18.8906 4.73805C18.9661 4.88624 19.0277 5.09849 19.0618 5.51272ZM6.36378 13.1585C5.83897 13.1585 5.41352 13.5839 5.41352 14.1087C5.41352 14.6336 5.83897 15.059 6.36378 15.059H11.0286C11.5534 15.059 11.9788 14.6336 11.9788 14.1087C11.9788 13.5839 11.5534 13.1585 11.0286 13.1585H6.36378ZM5.41352 10.0256C5.41352 9.50074 5.83897 9.07529 6.36378 9.07529H16.6267C17.1515 9.07529 17.5769 9.50074 17.5769 10.0256C17.5769 10.5504 17.1515 10.9758 16.6267 10.9758H6.36378C5.83897 10.9758 5.41352 10.5504 5.41352 10.0256ZM15.911 13.4475C15.609 13.2298 15.2077 13.2086 14.8844 13.3931C14.561 13.5776 14.3752 13.9339 14.409 14.3046L15.0496 21.3357C15.0837 21.71 15.3351 22.029 15.6911 22.1496C16.0471 22.2701 16.4407 22.1695 16.6952 21.893L18.5919 19.8318L21.2575 19.2563C21.6245 19.1771 21.9104 18.8893 21.9872 18.5218C22.064 18.1543 21.9172 17.7761 21.6126 17.5566L15.911 13.4475ZM17.3975 18.3231L16.7478 19.0291L16.4908 16.208L18.7684 17.8494L17.8962 18.0377C17.7045 18.0791 17.5303 18.1788 17.3975 18.3231Z" fill="#9058FF"/>
</svg>
