<svg width="20" height="20" viewBox="0 0 20 20" fill="none" xmlns="http://www.w3.org/2000/svg">
<path fill-rule="evenodd" clip-rule="evenodd" d="M10.8261 1.21621C10.3185 0.928201 9.69699 0.927913 9.18915 1.21545L2.54904 4.9751C2.02868 5.26972 1.70703 5.82147 1.70703 6.41945V13.4258C1.70703 14.0134 2.01773 14.5572 2.52393 14.8557L9.16403 18.77C9.68463 19.0769 10.3309 19.0766 10.8512 18.7692L17.476 14.8554C17.9815 14.5568 18.2916 14.0134 18.2916 13.4263V6.41893C18.2916 5.82151 17.9705 5.27018 17.4509 4.97534L10.8261 1.21621ZM4.22111 5.93575L10.0069 2.6598L11.8826 3.7241L6.01835 6.89947L4.22111 5.93575ZM7.76978 7.83862L13.5847 4.68994L15.7722 5.93117L10.0206 9.04554L7.76978 7.83862ZM3.36683 7.36104V13.4258L9.16802 16.8457V10.4717L3.36683 7.36104ZM10.8278 10.4959V16.8552L16.6318 13.4263V7.35323L10.8278 10.4959Z" fill="#7CBF64"/>
</svg>
