<svg width="24" height="24" viewBox="0 0 24 24" fill="none" xmlns="http://www.w3.org/2000/svg">
<path d="M5.74796 16.0885L5.55384 15.3641L5.74796 16.0885ZM4.05745 9.77948L3.86333 9.05503L4.05745 9.77948ZM7.14841 8.95126L7.34252 9.6757L7.14841 8.95126ZM14.4813 3.27573L13.8656 2.8475L13.863 2.85126L14.4813 3.27573ZM15.6225 3.48556L16.347 3.29144L16.3454 3.28582L15.6225 3.48556ZM18.9106 15.7567L19.6365 15.5682L19.635 15.5626L18.9106 15.7567ZM18.0272 16.509L17.7039 17.1858L17.7081 17.1877L18.0272 16.509ZM8.83892 15.2603L9.03303 15.9848H9.03303L8.83892 15.2603ZM9.54844 19.4538L10.2729 19.2596L9.54844 19.4538ZM6.65066 20.2302L7.3751 20.0361L7.37483 20.0351L6.65066 20.2302ZM5.55384 15.3641C4.93102 15.531 4.26302 15.4395 3.69634 15.1046L2.93315 16.3959C3.84284 16.9335 4.92535 17.0854 5.94207 16.813L5.55384 15.3641ZM3.69634 15.1046C3.12903 14.7693 2.71014 14.2173 2.53618 13.5681L1.08729 13.9563C1.36169 14.9804 2.0241 15.8587 2.93315 16.3959L3.69634 15.1046ZM2.53618 13.5681C2.36223 12.9189 2.44901 12.2314 2.77268 11.6574L1.46607 10.9207C0.947433 11.8405 0.812897 12.9323 1.08729 13.9563L2.53618 13.5681ZM2.77268 11.6574C3.09598 11.084 3.62873 10.6708 4.25156 10.5039L3.86333 9.05503C2.84661 9.32746 1.98507 10.0003 1.46607 10.9207L2.77268 11.6574ZM4.25156 10.5039L7.34252 9.6757L6.95429 8.22681L3.86333 9.05503L4.25156 10.5039ZM7.14841 8.95126C7.34252 9.6757 7.34283 9.67562 7.34315 9.67553C7.34328 9.6755 7.34362 9.67541 7.34388 9.67534C7.3444 9.6752 7.34498 9.67504 7.34563 9.67486C7.34692 9.67451 7.34847 9.67409 7.35027 9.67359C7.35388 9.6726 7.35851 9.67132 7.36414 9.66973C7.3754 9.66656 7.39065 9.66217 7.40974 9.65651C7.44792 9.64519 7.50145 9.62874 7.56903 9.60659C7.70416 9.56231 7.89565 9.49517 8.13295 9.40057C8.6073 9.21147 9.26638 8.91196 10.0251 8.46478C11.5427 7.57036 13.465 6.08138 15.0997 3.7002L13.863 2.85126C12.3762 5.01716 10.632 6.36594 9.2635 7.17252C8.5792 7.57583 7.99032 7.84263 7.57748 8.00721C7.37119 8.08945 7.20927 8.146 7.1019 8.18118C7.04822 8.19877 7.00823 8.21101 6.98319 8.21844C6.97067 8.22215 6.9619 8.22466 6.95703 8.22603C6.95459 8.22672 6.95313 8.22712 6.95267 8.22725C6.95244 8.22731 6.95246 8.22731 6.95273 8.22723C6.95286 8.2272 6.95306 8.22714 6.95332 8.22707C6.95345 8.22704 6.95369 8.22697 6.95376 8.22696C6.95402 8.22689 6.95429 8.22681 7.14841 8.95126ZM15.0971 3.70396C15.0854 3.72075 15.068 3.73548 15.0459 3.7446L14.4726 2.35847C14.2268 2.46013 14.0166 2.63034 13.8656 2.8475L15.0971 3.70396ZM15.0459 3.7446C15.0238 3.75375 14.9999 3.75604 14.9778 3.75197L15.249 2.2767C14.988 2.2287 14.7185 2.25678 14.4726 2.35847L15.0459 3.7446ZM14.9778 3.75197C14.9558 3.74793 14.9378 3.73812 14.9248 3.72606L15.9437 2.62521C15.7504 2.44634 15.5099 2.32467 15.249 2.2767L14.9778 3.75197ZM14.9248 3.72606C14.9119 3.71411 14.9036 3.69988 14.8996 3.68529L16.3454 3.28582C16.2756 3.03314 16.1368 2.80398 15.9437 2.62521L14.9248 3.72606ZM14.8981 3.67967L18.1861 15.9508L19.635 15.5626L16.347 3.29144L14.8981 3.67967ZM18.1846 15.9452C18.1808 15.9305 18.1809 15.9141 18.1861 15.8973L19.6189 16.3412C19.6967 16.0898 19.7024 15.822 19.6365 15.5682L18.1846 15.9452ZM18.1861 15.8973C18.1913 15.8803 18.202 15.8628 18.219 15.8484L19.1915 16.9904C19.3935 16.8184 19.5409 16.5927 19.6189 16.3412L18.1861 15.8973ZM18.219 15.8484C18.2361 15.8338 18.2579 15.8238 18.2817 15.8207L18.4783 17.3077C18.7421 17.2729 18.9895 17.1625 19.1915 16.9904L18.219 15.8484ZM18.2817 15.8207C18.3053 15.8176 18.3278 15.8216 18.3463 15.8303L17.7081 17.1877C17.9474 17.3003 18.2146 17.3426 18.4783 17.3077L18.2817 15.8207ZM18.3504 15.8322C15.7442 14.5874 13.3349 14.2591 11.5735 14.2433C10.6928 14.2354 9.97225 14.3055 9.4669 14.3789C9.21409 14.4157 9.01469 14.4533 8.87552 14.4825C8.80592 14.4971 8.75134 14.5096 8.71261 14.5189C8.69325 14.5235 8.67785 14.5274 8.66651 14.5302C8.66084 14.5317 8.65619 14.5329 8.65257 14.5338C8.65076 14.5343 8.64921 14.5347 8.64791 14.5351C8.64726 14.5352 8.64668 14.5354 8.64616 14.5355C8.6459 14.5356 8.64556 14.5357 8.64543 14.5357C8.64511 14.5358 8.6448 14.5359 8.83892 15.2603C9.03303 15.9848 9.03276 15.9848 9.0325 15.9849C9.03243 15.9849 9.03219 15.985 9.03206 15.985C9.0318 15.9851 9.0316 15.9852 9.03147 15.9852C9.0312 15.9853 9.03118 15.9853 9.03141 15.9852C9.03187 15.9851 9.03334 15.9847 9.03579 15.9841C9.0407 15.9828 9.04955 15.9806 9.06225 15.9776C9.08765 15.9715 9.1284 15.9621 9.18368 15.9505C9.29426 15.9273 9.46276 15.8953 9.68254 15.8634C10.1224 15.7995 10.7657 15.7361 11.56 15.7432C13.1485 15.7575 15.3333 16.0535 17.7039 17.1858L18.3504 15.8322ZM8.6448 14.5359L5.55384 15.3641L5.94207 16.813L9.03303 15.9848L8.6448 14.5359ZM6.10639 9.50565L8.82399 19.6479L10.2729 19.2596L7.55528 9.11742L6.10639 9.50565ZM7.37483 20.0351L6.2715 15.9402L4.82315 16.3304L5.92648 20.4253L7.37483 20.0351ZM8.29366 20.5664C7.89356 20.6736 7.48231 20.4362 7.3751 20.0361L5.92621 20.4243C6.24783 21.6246 7.48159 22.3369 8.68189 22.0153L8.29366 20.5664ZM8.82399 19.6479C8.9312 20.048 8.69376 20.4592 8.29366 20.5664L8.68189 22.0153C9.88219 21.6937 10.5945 20.4599 10.2729 19.2596L8.82399 19.6479Z" fill="#3A00FF"/>
<path d="M22.141 8.49647L20.2092 9.01411M19.881 4.96094L18.4668 6.37515M21.9516 12.6883L20.0197 12.1707" stroke="#FF76DF" stroke-width="1.5" stroke-linecap="round" stroke-linejoin="round"/>
</svg>
