<svg width="24" height="24" viewBox="0 0 24 24" fill="none" xmlns="http://www.w3.org/2000/svg">
<path d="M8.78253 17.4141C7.67902 20.6956 3.30371 20.6956 3.30371 20.6956C3.30371 20.6956 3.30371 16.3203 6.5852 15.2168" stroke="#FF76DF" stroke-width="1.5" stroke-linecap="round" stroke-linejoin="round"/>
<path d="M18.6368 9.74761L12.0642 16.3203L7.6792 11.9353L14.2519 5.36261C16.7396 2.87488 19.2273 2.90392 20.2921 3.0588C20.4564 3.08072 20.6089 3.1561 20.7261 3.27331C20.8434 3.39052 20.9187 3.54304 20.9407 3.70735C21.0955 4.77214 21.1246 7.25987 18.6368 9.74761Z" stroke="#3A00FF" stroke-width="1.5" stroke-linecap="round" stroke-linejoin="round"/>
<path d="M17.5428 10.8418V17.095C17.5399 17.2993 17.4564 17.4941 17.3105 17.6371L14.1839 20.7734C14.0847 20.8725 13.9604 20.9427 13.8244 20.9767C13.6884 21.0108 13.5457 21.0072 13.4116 20.9665C13.2774 20.9257 13.1568 20.8493 13.0627 20.7454C12.9686 20.6415 12.9044 20.514 12.8771 20.3765L12.064 16.3206" stroke="#3A00FF" stroke-width="1.5" stroke-linecap="round" stroke-linejoin="round"/>
<path d="M13.1581 6.45703H6.90486C6.7006 6.45994 6.50576 6.54344 6.36279 6.68935L3.2265 9.81596C3.12742 9.91515 3.05713 10.0394 3.02312 10.1754C2.98912 10.3114 2.99268 10.4541 3.03342 10.5883C3.07416 10.7224 3.15056 10.843 3.25446 10.9371C3.35836 11.0312 3.48587 11.0954 3.62337 11.1227L7.67925 11.9359" stroke="#3A00FF" stroke-width="1.5" stroke-linecap="round" stroke-linejoin="round"/>
</svg>
