<svg width="25" height="25" viewBox="0 0 25 25" fill="none" xmlns="http://www.w3.org/2000/svg">
<rect x="1.53906" y="2.39062" width="21" height="21" rx="10.5" fill="#B92B27"/>
<path d="M18.21 16.4684H17.4514C17.4122 16.8212 17.1772 17.271 16.5947 17.271C16.0611 17.271 15.6777 16.9007 15.3054 16.3432C16.4577 15.4514 17.2505 14.0714 17.2505 12.3733C17.2505 9.3205 14.7344 7.26562 12.0961 7.26562C9.50157 7.26562 6.96094 9.33538 6.96094 12.3733C6.96094 15.3826 9.50157 17.452 12.0963 17.452C12.5464 17.452 13.0002 17.3889 13.4273 17.2744C13.9365 18.1468 14.6153 18.8906 15.8993 18.8906C18.0192 18.8906 18.2545 16.9382 18.21 16.4684ZM14.4801 14.9781C13.9775 14.2199 13.3444 13.626 12.1108 13.626C11.3178 13.626 10.701 13.8856 10.3191 14.2131L10.6324 14.8397C10.7939 14.766 10.97 14.7368 11.1462 14.7368C12.0685 14.7368 12.5412 15.5376 12.9443 16.3303C12.6866 16.4054 12.4059 16.4395 12.0963 16.4395C10.1476 16.4395 9.30571 15.0646 9.30571 12.3735C9.30571 9.66809 10.1477 8.27882 12.0963 8.27882C14.0737 8.27882 14.9203 9.66809 14.9203 12.3735C14.9203 13.4567 14.7783 14.3308 14.4801 14.9781Z" fill="white"/>
</svg>
