<svg width="24" height="24" viewBox="0 0 24 24" fill="none" xmlns="http://www.w3.org/2000/svg">
<path fill-rule="evenodd" clip-rule="evenodd" d="M12.584 2.25C12.584 1.69772 12.1363 1.25 11.584 1.25C11.0317 1.25 10.584 1.69772 10.584 2.25V4.41016H5.89605C4.2966 4.41016 3 5.70676 3 7.3062V16.1544C3 17.7539 4.2966 19.0505 5.89605 19.0505H10.1334C10.6856 19.0505 11.1334 18.6028 11.1334 18.0505C11.1334 17.4982 10.6856 17.0505 10.1334 17.0505H5.89605C5.40117 17.0505 5 16.6493 5 16.1544V7.3062C5 6.81133 5.40117 6.41016 5.89605 6.41016H17.2723C17.7672 6.41016 18.1684 6.81133 18.1684 7.3062V9.89119C18.1684 10.4435 18.6161 10.8912 19.1684 10.8912C19.7207 10.8912 20.1684 10.4435 20.1684 9.89119V7.3062C20.1684 5.70676 18.8718 4.41016 17.2723 4.41016H12.584V2.25ZM8.54492 8.99805C9.09721 8.99805 9.54492 9.44576 9.54492 9.99805V11.2681C9.54492 11.8204 9.09721 12.2681 8.54492 12.2681C7.99264 12.2681 7.54492 11.8204 7.54492 11.2681V9.99805C7.54492 9.44576 7.99264 8.99805 8.54492 8.99805ZM15.623 9.99805C15.623 9.44576 15.1753 8.99805 14.623 8.99805C14.0708 8.99805 13.623 9.44576 13.623 9.99805V11.2681C13.623 11.8204 14.0708 12.2681 14.623 12.2681C15.1753 12.2681 15.623 11.8204 15.623 11.2681V9.99805ZM13.9388 13.395C14.1694 13.8969 13.9494 14.4906 13.4476 14.7212L13.4456 14.7221L13.4433 14.7231L13.4383 14.7254L13.4257 14.731C13.4174 14.7346 13.4076 14.7389 13.3961 14.7437L13.391 14.7458C13.3636 14.7572 13.3279 14.7715 13.2845 14.7876C13.1977 14.8198 13.079 14.8598 12.9334 14.8989C12.644 14.9765 12.2374 15.0535 11.7578 15.0535C11.2612 15.0535 10.8505 14.9779 10.5561 14.8987C10.4086 14.859 10.2892 14.8181 10.2012 14.7846C10.1572 14.7678 10.1209 14.7528 10.0928 14.7407C10.0731 14.7321 10.0535 14.7233 10.0341 14.7141L10.033 14.7135C9.53541 14.474 9.32621 13.8764 9.56577 13.3787C9.80331 12.8853 10.3929 12.6755 10.888 12.9055C10.8914 12.907 10.9 12.9106 10.9135 12.9157C10.9441 12.9274 10.9992 12.9467 11.0757 12.9673C11.2291 13.0086 11.4639 13.0535 11.7578 13.0535C12.026 13.0535 12.2556 13.01 12.4153 12.9671C12.4201 12.9659 12.6089 12.9236 12.6213 12.8999L13.9388 13.395ZM13.9388 13.395L12.6213 12.8999C13.1211 12.6763 13.7097 12.8963 13.9388 13.395ZM20.4029 14.324C20.0842 14.0053 19.5674 14.0053 19.2487 14.324L19.0951 14.4776C19.1475 15.0882 19.6389 15.5794 20.2495 15.6317L20.4029 15.4783C20.7217 15.1595 20.7217 14.6428 20.4029 14.324ZM15.7933 17.7794L17.544 16.0287C17.8255 16.5032 18.2238 16.9015 18.6983 17.1829L16.9476 18.9336C16.4588 19.4224 16.29 19.5869 16.1073 19.7183C15.9316 19.8446 15.7427 19.9515 15.5441 20.0372C15.3374 20.1263 15.1095 20.1864 14.4389 20.354L14.351 20.376L14.3729 20.2881C14.5406 19.6175 14.6007 19.3896 14.6898 19.1829C14.7755 18.9842 14.8824 18.7954 15.0087 18.6197C15.1401 18.4369 15.3046 18.2682 15.7933 17.7794ZM17.8345 12.9098C18.9343 11.81 20.7174 11.81 21.8171 12.9098C22.9169 14.0096 22.9169 15.7927 21.8171 16.8925L18.3618 20.3478L18.308 20.4016C17.893 20.8168 17.6055 21.1044 17.2747 21.3422C16.9819 21.5527 16.6671 21.7309 16.336 21.8737C15.9618 22.0351 15.5673 22.1336 14.9977 22.2759L14.924 22.2943L13.2191 22.7205C12.8783 22.8057 12.5179 22.7059 12.2695 22.4575C12.0211 22.2091 11.9212 21.8486 12.0064 21.5078L12.4327 19.803L12.4511 19.7292C12.5933 19.1597 12.6919 18.7652 12.8532 18.391C12.996 18.0598 13.1742 17.7451 13.3847 17.4523C13.6226 17.1214 13.9102 16.8339 14.3254 16.4189L14.3791 16.3652L17.8345 12.9098Z" fill="#9058FF"/>
</svg>
