<svg width="24" height="24" viewBox="0 0 24 24" fill="none" xmlns="http://www.w3.org/2000/svg">
<path fill-rule="evenodd" clip-rule="evenodd" d="M15.6495 4.32L11.52 4.32V6.24001C11.52 8.36082 9.80077 10.0801 7.67995 10.0801H5.76001L5.76001 16.9576L5.75998 16.9643C5.74968 18.4283 6.87474 19.6123 8.27396 19.6799H11.4594C11.9896 19.6799 12.4194 20.1097 12.4194 20.6399C12.4194 21.1701 11.9896 21.5999 11.4594 21.5999H8.25261C8.2394 21.5999 8.2262 21.5996 8.21301 21.5991C5.74427 21.4972 3.82441 19.4294 3.83997 16.9544L3.83997 9.13563C3.83588 8.88053 3.93364 8.62865 4.12105 8.44123L9.88117 2.68111C10.0673 2.49494 10.3171 2.39724 10.5705 2.39996L15.6477 2.39996C18.1099 2.39141 20.102 4.38348 20.1591 6.8487L20.1593 6.87094V12.9624C20.1593 13.4926 19.7295 13.9225 19.1993 13.9225C18.6691 13.9225 18.2393 13.4926 18.2393 12.9624V6.88289C18.2005 5.43884 17.0385 4.31457 15.6532 4.31999L15.6495 4.32ZM9.59999 5.67769L7.11766 8.16005H7.67995C8.74036 8.16005 9.59999 7.30042 9.59999 6.24001V5.67769Z" fill="#00CDFA"/>
<path d="M15.2379 11.7554C15.7681 11.7554 16.198 12.1852 16.198 12.7154C16.198 13.2456 15.7681 13.6754 15.2379 13.6754H13.5934L18.2401 18.3222V16.6776C18.2401 16.1474 18.67 15.7176 19.2002 15.7176C19.7304 15.7176 20.1602 16.1474 20.1602 16.6776L20.1602 20.6399C20.1602 21.1701 19.7304 21.5999 19.2002 21.5999H15.2379C14.7077 21.5999 14.2779 21.1701 14.2779 20.6399C14.2779 20.1097 14.7077 19.6798 15.2379 19.6798H16.8825L12.2357 15.0331V16.6776C12.2357 17.2078 11.8059 17.6377 11.2757 17.6377C10.7455 17.6377 10.3157 17.2078 10.3157 16.6776L10.3157 12.7154C10.3157 12.1852 10.7455 11.7554 11.2757 11.7554L15.2379 11.7554Z" fill="#00CDFA"/>
</svg>
