<svg width="24" height="24" viewBox="0 0 24 24" fill="none" xmlns="http://www.w3.org/2000/svg">
<path fill-rule="evenodd" clip-rule="evenodd" d="M9.67428 19.5357C9.67689 19.0397 9.27911 18.6355 8.78581 18.6328L8.1183 18.6293C7.22954 18.6233 6.57774 18.3042 6.13767 17.7971C5.68648 17.2771 5.38652 16.4749 5.38652 15.3932V6.591C5.38652 5.10285 6.58624 3.89646 8.06616 3.89646H14.4155C15.8954 3.89646 17.0951 5.10285 17.0951 6.591V10.4207C17.0951 10.9168 17.495 11.3189 17.9884 11.3189C18.4817 11.3189 18.8816 10.9168 18.8816 10.4207V6.591C18.8816 4.11074 16.882 2.1001 14.4155 2.1001H8.06616C5.59962 2.1001 3.6001 4.11075 3.6001 6.591V15.3932C3.6001 16.7994 3.9921 18.0567 4.79162 18.9781C5.60226 19.9123 6.75992 20.4164 8.10616 20.4256L8.11223 20.4257C8.11158 20.4257 8.15031 20.4259 8.21621 20.4262L8.77635 20.4292C9.26965 20.4318 9.67167 20.0318 9.67428 19.5357ZM8.03825 8.32743C7.54494 8.32743 7.14503 7.9253 7.14503 7.42925C7.14503 6.93319 7.54494 6.53107 8.03825 6.53107H14.4872C14.9805 6.53107 15.3804 6.93319 15.3804 7.42925C15.3804 7.9253 14.9805 8.32743 14.4872 8.32743H8.03825ZM8.03825 12.0877C7.54494 12.0877 7.14503 11.6855 7.14503 11.1895C7.14503 10.6934 7.54494 10.2913 8.03825 10.2913H11.168C11.6613 10.2913 12.0612 10.6934 12.0612 11.1895C12.0612 11.6855 11.6613 12.0877 11.168 12.0877H8.03825ZM20.4001 13.1429C20.4001 12.6468 20.0002 12.2447 19.5069 12.2447C19.0136 12.2447 18.6137 12.6468 18.6137 13.1429V13.6752C18.2108 13.2937 17.7421 12.9886 17.2302 12.7752C16.6749 12.5437 16.0796 12.4245 15.4784 12.4245C14.8773 12.4245 14.282 12.5437 13.7267 12.7752C13.1714 13.0068 12.6669 13.3461 12.2421 13.7739C11.8935 14.1249 11.8939 14.6936 12.243 15.0441C12.5921 15.3946 13.1576 15.3942 13.5062 15.0432C13.7651 14.7825 14.0725 14.5757 14.4109 14.4346C14.7493 14.2935 15.1121 14.2209 15.4784 14.2209C15.8448 14.2209 16.2075 14.2935 16.5459 14.4346C16.8372 14.556 17.1055 14.7261 17.3397 14.9374H16.8291C16.3358 14.9374 15.9358 15.3395 15.9358 15.8356C15.9358 16.3316 16.3358 16.7338 16.8291 16.7338H19.4875C19.5491 16.7351 19.6109 16.73 19.6717 16.7185C20.0863 16.6408 20.4001 16.275 20.4001 15.8356V13.1429ZM11.4902 17.3215C11.2481 17.3108 11.0026 17.3985 10.8181 17.5846C10.6442 17.76 10.5573 17.9896 10.5574 18.2191V18.2197V21.0019C10.5574 21.498 10.9573 21.9001 11.4506 21.9001C11.9439 21.9001 12.3438 21.498 12.3438 21.0019V20.38C12.7466 20.7612 13.215 21.0661 13.7267 21.2794C14.282 21.5109 14.8773 21.6301 15.4784 21.6301C16.0796 21.6301 16.6749 21.5109 17.2302 21.2794C17.7855 21.0478 18.29 20.7085 18.7148 20.2807C19.0633 19.9297 19.0629 19.361 18.7138 19.0105C18.3648 18.66 17.7992 18.6604 17.4506 19.0114C17.1918 19.2721 16.8844 19.4789 16.5459 19.62C16.2075 19.7611 15.8448 19.8337 15.4784 19.8337C15.1121 19.8337 14.7493 19.7611 14.4109 19.62C14.1199 19.4987 13.8519 19.3288 13.6179 19.1179H14.2174C14.7107 19.1179 15.1107 18.7157 15.1107 18.2197C15.1107 17.7236 14.7107 17.3215 14.2174 17.3215H11.4902Z" fill="#FF76DF"/>
</svg>
